<svg width="1533" height="2342" viewBox="0 0 1533 2342" fill="none" xmlns="http://www.w3.org/2000/svg">

<defs>

  <style>
    .path {
  stroke-dasharray: 5000;
  animation: draw 7s linear forwards;
  <!-- animation-fill-mode : forwards; -->
}

@keyframes draw {
     from {
    stroke-dashoffset: 5000
  }
  to {
    stroke-dashoffset: 0;
  }
}
  </style>
</defs>

<path class="path" d="M1 3L382.027 129.868C415.856 141.132 432.771 146.763 447.774 156.083C462.778 165.402 475.323 178.069 500.412 203.403L597.618 301.557C650.99 355.449 677.676 382.395 712.301 393.641C746.925 404.888 784.352 398.766 859.205 386.522L1003.89 362.856C1069.66 352.097 1102.55 346.717 1133.73 355.071C1164.91 363.426 1190.7 384.529 1242.29 426.734L1304.31 477.485C1380.67 539.96 1418.85 571.197 1431.97 615.411C1445.09 659.625 1430.14 706.632 1400.22 800.645L1346.51 969.416C1327.28 1029.85 1317.66 1060.06 1297.51 1083.36C1277.36 1106.65 1248.84 1120.52 1191.81 1148.25L437.194 1515.12C408.01 1529.31 393.417 1536.4 380.855 1546.24C374.703 1551.06 368.936 1556.35 363.609 1562.07C352.73 1573.75 344.415 1587.68 327.783 1615.54V1615.54C256.129 1735.6 220.301 1795.62 229.011 1849.53C233.138 1875.08 243.803 1899.12 259.97 1919.32C294.088 1961.96 362.632 1975.69 499.72 2003.15L1532.5 2210" stroke="url(#paint0_linear)" stroke-width="5"/>
<path class="path" d="M1 38L382.027 164.868C415.856 176.132 432.771 181.763 447.774 191.083C462.778 200.402 475.323 213.069 500.412 238.403L597.618 336.557C650.99 390.449 677.676 417.395 712.301 428.641C746.925 439.888 784.352 433.766 859.205 421.522L1003.89 397.856C1069.66 387.097 1102.55 381.717 1133.73 390.071C1164.91 398.426 1190.7 419.529 1242.29 461.734L1304.31 512.485C1380.67 574.96 1418.85 606.197 1431.97 650.411C1445.09 694.625 1430.14 741.632 1400.22 835.645L1346.51 1004.42C1327.28 1064.85 1317.66 1095.06 1297.51 1118.36C1277.36 1141.65 1248.84 1155.52 1191.81 1183.25L437.194 1550.12C408.01 1564.31 393.417 1571.4 380.855 1581.24C374.703 1586.06 368.936 1591.35 363.609 1597.07C352.73 1608.75 344.415 1622.68 327.783 1650.54V1650.54C256.129 1770.6 220.301 1830.62 229.011 1884.53C233.138 1910.08 243.803 1934.12 259.97 1954.32C294.088 1996.96 362.632 2010.69 499.72 2038.15L1532.5 2245" stroke="url(#paint1_linear)" stroke-width="4"/>
<path class="path" d="M1 71L382.027 197.868C415.856 209.132 432.771 214.763 447.774 224.083C462.778 233.402 475.323 246.069 500.412 271.403L597.618 369.557C650.99 423.449 677.676 450.395 712.301 461.641C746.925 472.888 784.352 466.766 859.205 454.522L1003.89 430.856C1069.66 420.097 1102.55 414.717 1133.73 423.071C1164.91 431.426 1190.7 452.529 1242.29 494.734L1304.31 545.485C1380.67 607.96 1418.85 639.197 1431.97 683.411C1445.09 727.625 1430.14 774.632 1400.22 868.645L1346.51 1037.42C1327.28 1097.85 1317.66 1128.06 1297.51 1151.36C1277.36 1174.65 1248.84 1188.52 1191.81 1216.25L437.194 1583.12C408.01 1597.31 393.417 1604.4 380.855 1614.24C374.703 1619.06 368.936 1624.35 363.609 1630.07C352.73 1641.75 344.415 1655.68 327.783 1683.54V1683.54C256.129 1803.6 220.301 1863.62 229.011 1917.53C233.138 1943.08 243.803 1967.12 259.97 1987.32C294.088 2029.96 362.632 2043.69 499.72 2071.15L1532.5 2278" stroke="url(#paint2_linear)" stroke-width="3"/>
<path class="path" d="M1 104L382.027 230.868C415.856 242.132 432.771 247.763 447.774 257.083C462.778 266.402 475.323 279.069 500.412 304.403L597.618 402.557C650.99 456.449 677.676 483.395 712.301 494.641C746.925 505.888 784.352 499.766 859.205 487.522L1003.89 463.856C1069.66 453.097 1102.55 447.717 1133.73 456.071C1164.91 464.426 1190.7 485.529 1242.29 527.734L1304.31 578.485C1380.67 640.96 1418.85 672.197 1431.97 716.411C1445.09 760.625 1430.14 807.632 1400.22 901.645L1346.51 1070.42C1327.28 1130.85 1317.66 1161.06 1297.51 1184.36C1277.36 1207.65 1248.84 1221.52 1191.81 1249.25L437.194 1616.12C408.01 1630.31 393.417 1637.4 380.855 1647.24C374.703 1652.06 368.936 1657.35 363.609 1663.07C352.73 1674.75 344.415 1688.68 327.783 1716.54V1716.54C256.129 1836.6 220.301 1896.62 229.011 1950.53C233.138 1976.08 243.803 2000.12 259.97 2020.32C294.088 2062.96 362.632 2076.69 499.72 2104.15L1532.5 2311" stroke="url(#paint3_linear)" stroke-width="2"/>
<path class="path" d="M1 134L382.027 260.868C415.856 272.132 432.771 277.763 447.774 287.083C462.778 296.402 475.323 309.069 500.412 334.403L597.618 432.557C650.99 486.449 677.676 513.395 712.301 524.641C746.925 535.888 784.352 529.766 859.205 517.522L1003.89 493.856C1069.66 483.097 1102.55 477.717 1133.73 486.071C1164.91 494.426 1190.7 515.529 1242.29 557.734L1304.31 608.485C1380.67 670.96 1418.85 702.197 1431.97 746.411C1445.09 790.625 1430.14 837.632 1400.22 931.645L1346.51 1100.42C1327.28 1160.85 1317.66 1191.06 1297.51 1214.36C1277.36 1237.65 1248.84 1251.52 1191.81 1279.25L437.194 1646.12C408.01 1660.31 393.417 1667.4 380.855 1677.24C374.703 1682.06 368.936 1687.35 363.609 1693.07C352.73 1704.75 344.415 1718.68 327.783 1746.54V1746.54C256.129 1866.6 220.301 1926.62 229.011 1980.53C233.138 2006.08 243.803 2030.12 259.97 2050.32C294.088 2092.96 362.632 2106.69 499.72 2134.15L1532.5 2341" stroke="url(#paint4_linear)"/>
<defs>
<linearGradient id="paint0_linear" x1="784.75" y1="24" x2="784.75" y2="2203.5" gradientUnits="userSpaceOnUse">
<stop stop-color="#19446C"/>
<stop offset="1" stop-color="#7FAFDB"/>
</linearGradient>
<linearGradient id="paint1_linear" x1="784.75" y1="59" x2="784.75" y2="2238.5" gradientUnits="userSpaceOnUse">
<stop stop-color="#19446C"/>
<stop offset="1" stop-color="#7FAFDB"/>
</linearGradient>
<linearGradient id="paint2_linear" x1="784.75" y1="92" x2="784.75" y2="2271.5" gradientUnits="userSpaceOnUse">
<stop stop-color="#19446C"/>
<stop offset="1" stop-color="#7FAFDB"/>
</linearGradient>
<linearGradient id="paint3_linear" x1="784.75" y1="125" x2="784.75" y2="2304.5" gradientUnits="userSpaceOnUse">
<stop stop-color="#19446C"/>
<stop offset="1" stop-color="#7FAFDB"/>
</linearGradient>
<linearGradient id="paint4_linear" x1="784.75" y1="155" x2="784.75" y2="2334.5" gradientUnits="userSpaceOnUse">
<stop stop-color="#19446C"/>
<stop offset="1" stop-color="#7FAFDB"/>
</linearGradient>
</defs>
</svg>
