<svg width="1533" height="2353" viewBox="0 0 1533 2353" fill="none" xmlns="http://www.w3.org/2000/svg">
<path d="M1 14L382.027 140.868C415.856 152.132 432.771 157.763 447.774 167.083C462.778 176.402 475.323 189.069 500.412 214.403L597.618 312.557C650.99 366.449 677.676 393.395 712.301 404.641C746.925 415.888 784.352 409.766 859.205 397.522L1003.89 373.856C1069.66 363.097 1102.55 357.717 1133.73 366.071C1164.91 374.426 1190.7 395.529 1242.29 437.734L1304.31 488.485C1380.67 550.96 1418.85 582.197 1431.97 626.411C1445.09 670.625 1430.14 717.632 1400.22 811.645L1346.51 980.416C1327.28 1040.85 1317.66 1071.06 1297.51 1094.36C1277.36 1117.65 1248.84 1131.52 1191.81 1159.25L437.194 1526.12C408.01 1540.31 393.417 1547.4 380.855 1557.24C374.703 1562.06 368.936 1567.35 363.609 1573.07C352.73 1584.75 344.415 1598.68 327.783 1626.54V1626.54C256.129 1746.6 220.301 1806.62 229.011 1860.53C233.138 1886.08 243.803 1910.12 259.97 1930.32C294.088 1972.96 362.632 1986.69 499.72 2014.15L1532.5 2221" stroke="url(#paint0_linear)" stroke-width="5"/>
<path d="M1 49L382.027 175.868C415.856 187.132 432.771 192.763 447.774 202.083C462.778 211.402 475.323 224.069 500.412 249.403L597.618 347.557C650.99 401.449 677.676 428.395 712.301 439.641C746.925 450.888 784.352 444.766 859.205 432.522L1003.89 408.856C1069.66 398.097 1102.55 392.717 1133.73 401.071C1164.91 409.426 1190.7 430.529 1242.29 472.734L1304.31 523.485C1380.67 585.96 1418.85 617.197 1431.97 661.411C1445.09 705.625 1430.14 752.632 1400.22 846.645L1346.51 1015.42C1327.28 1075.85 1317.66 1106.06 1297.51 1129.36C1277.36 1152.65 1248.84 1166.52 1191.81 1194.25L437.194 1561.12C408.01 1575.31 393.417 1582.4 380.855 1592.24C374.703 1597.06 368.936 1602.35 363.609 1608.07C352.73 1619.75 344.415 1633.68 327.783 1661.54V1661.54C256.129 1781.6 220.301 1841.62 229.011 1895.53C233.138 1921.08 243.803 1945.12 259.97 1965.32C294.088 2007.96 362.632 2021.69 499.72 2049.15L1532.5 2256" stroke="url(#paint1_linear)" stroke-width="4"/>
<path d="M1 82L382.027 208.868C415.856 220.132 432.771 225.763 447.774 235.083C462.778 244.402 475.323 257.069 500.412 282.403L597.618 380.557C650.99 434.449 677.676 461.395 712.301 472.641C746.925 483.888 784.352 477.766 859.205 465.522L1003.89 441.856C1069.66 431.097 1102.55 425.717 1133.73 434.071C1164.91 442.426 1190.7 463.529 1242.29 505.734L1304.31 556.485C1380.67 618.96 1418.85 650.197 1431.97 694.411C1445.09 738.625 1430.14 785.632 1400.22 879.645L1346.51 1048.42C1327.28 1108.85 1317.66 1139.06 1297.51 1162.36C1277.36 1185.65 1248.84 1199.52 1191.81 1227.25L437.194 1594.12C408.01 1608.31 393.417 1615.4 380.855 1625.24C374.703 1630.06 368.936 1635.35 363.609 1641.07C352.73 1652.75 344.415 1666.68 327.783 1694.54V1694.54C256.129 1814.6 220.301 1874.62 229.011 1928.53C233.138 1954.08 243.803 1978.12 259.97 1998.32C294.088 2040.96 362.632 2054.69 499.72 2082.15L1532.5 2289" stroke="url(#paint2_linear)" stroke-width="3"/>
<path d="M1 115L382.027 241.868C415.856 253.132 432.771 258.763 447.774 268.083C462.778 277.402 475.323 290.069 500.412 315.403L597.618 413.557C650.99 467.449 677.676 494.395 712.301 505.641C746.925 516.888 784.352 510.766 859.205 498.522L1003.89 474.856C1069.66 464.097 1102.55 458.717 1133.73 467.071C1164.91 475.426 1190.7 496.529 1242.29 538.734L1304.31 589.485C1380.67 651.96 1418.85 683.197 1431.97 727.411C1445.09 771.625 1430.14 818.632 1400.22 912.645L1346.51 1081.42C1327.28 1141.85 1317.66 1172.06 1297.51 1195.36C1277.36 1218.65 1248.84 1232.52 1191.81 1260.25L437.194 1627.12C408.01 1641.31 393.417 1648.4 380.855 1658.24C374.703 1663.06 368.936 1668.35 363.609 1674.07C352.73 1685.75 344.415 1699.68 327.783 1727.54V1727.54C256.129 1847.6 220.301 1907.62 229.011 1961.53C233.138 1987.08 243.803 2011.12 259.97 2031.32C294.088 2073.96 362.632 2087.69 499.72 2115.15L1532.5 2322" stroke="url(#paint3_linear)" stroke-width="2"/>
<path d="M1 145L382.027 271.868C415.856 283.132 432.771 288.763 447.774 298.083C462.778 307.402 475.323 320.069 500.412 345.403L597.618 443.557C650.99 497.449 677.676 524.395 712.301 535.641C746.925 546.888 784.352 540.766 859.205 528.522L1003.89 504.856C1069.66 494.097 1102.55 488.717 1133.73 497.071C1164.91 505.426 1190.7 526.529 1242.29 568.734L1304.31 619.485C1380.67 681.96 1418.85 713.197 1431.97 757.411C1445.09 801.625 1430.14 848.632 1400.22 942.645L1346.51 1111.42C1327.28 1171.85 1317.66 1202.06 1297.51 1225.36C1277.36 1248.65 1248.84 1262.52 1191.81 1290.25L437.194 1657.12C408.01 1671.31 393.417 1678.4 380.855 1688.24C374.703 1693.06 368.936 1698.35 363.609 1704.07C352.73 1715.75 344.415 1729.68 327.783 1757.54V1757.54C256.129 1877.6 220.301 1937.62 229.011 1991.53C233.138 2017.08 243.803 2041.12 259.97 2061.32C294.088 2103.96 362.632 2117.69 499.72 2145.15L1532.5 2352" stroke="url(#paint4_linear)"/>
<path d="M174.618 42.748C174.404 42.6792 174.251 42.5289 174.158 42.2971C174.095 42.075 174.103 41.8422 174.182 41.5986C174.34 41.2125 174.49 41.0087 174.631 40.9871C174.813 40.9448 175.102 40.9876 175.498 41.1153C176.289 41.3708 176.897 41.4156 177.32 41.2496C177.744 41.0836 178.045 40.8277 178.224 40.4819C178.403 40.1361 178.62 39.5673 178.875 38.7755L182.251 28.3147C182.506 27.5229 182.663 26.9344 182.72 26.5493C182.807 26.174 182.727 25.7953 182.481 25.4131C182.234 25.031 181.715 24.7121 180.923 24.4566C180.558 24.3387 180.299 24.2046 180.145 24.0543C180.002 23.8735 179.994 23.5851 180.122 23.1892C180.181 23.0065 180.296 22.8587 180.467 22.7457C180.647 22.6023 180.865 22.5547 181.118 22.6028C183.196 22.937 184.953 23.0669 186.389 22.9923C186.956 23.0071 187.336 23.0288 187.528 23.0573L187.665 23.1015C188.153 23.2587 188.303 23.6267 188.116 24.2053L187.187 27.0832L187.325 27.1274C187.566 27.0036 188.165 26.7094 189.122 26.2448C190.089 25.7498 191.088 25.467 192.12 25.3963C193.182 25.3355 194.307 25.4967 195.494 25.88C196.956 26.3516 198.117 27.0792 198.976 28.0627C199.846 29.0157 200.362 30.1239 200.526 31.3873L200.618 31.4168C202.169 30.6732 203.576 30.1689 204.838 29.9037C206.131 29.6484 207.63 29.7959 209.336 30.3462C211.406 31.0145 212.85 32.1694 213.665 33.8111C214.48 35.4528 214.558 37.2938 213.9 39.3342L210.76 49.0642C210.505 49.856 210.349 50.4444 210.292 50.8295C210.235 51.2146 210.329 51.5983 210.576 51.9805C210.822 52.3626 211.342 52.6815 212.133 52.937L212.408 53.0254C212.651 53.104 212.819 53.2087 212.911 53.3393C213.004 53.47 213.006 53.723 212.919 54.0983C212.84 54.3419 212.695 54.5305 212.484 54.6641C212.303 54.8075 212.106 54.8448 211.893 54.776C210.156 54.1147 208.572 53.5531 207.141 53.0913C205.77 52.6491 204.172 52.1837 202.346 51.6953C202.102 51.6167 201.949 51.4664 201.886 51.2444C201.823 51.0223 201.831 50.7895 201.91 50.5459C202.068 50.1598 202.218 49.956 202.359 49.9344C202.541 49.8921 202.83 49.9349 203.226 50.0626C204.018 50.3181 204.625 50.3629 205.049 50.1969C205.472 50.0309 205.773 49.775 205.952 49.4292C206.131 49.0834 206.348 48.5146 206.603 47.7228L209.728 38.0385C210.18 36.6377 210.083 35.4293 209.435 34.4134C208.798 33.3671 207.901 32.6572 206.743 32.2838C205.342 31.8318 204.092 31.7983 202.993 32.1833C201.894 32.5683 201.038 33.0825 200.427 33.7259L196.919 44.5979C196.86 44.7806 196.712 45.1869 196.475 45.8166C196.269 46.4561 196.284 46.9822 196.521 47.3948C196.788 47.8173 197.318 48.1562 198.109 48.4117L198.384 48.5002C198.658 48.5886 198.826 48.6933 198.888 48.8141C198.98 48.9448 198.982 49.1977 198.895 49.573C198.816 49.8166 198.686 50.0102 198.506 50.1536C198.325 50.297 198.113 50.3294 197.869 50.2508C196.102 49.5796 194.563 49.0328 193.254 48.6102C192.005 48.2073 190.468 47.7617 188.642 47.2733C188.398 47.1947 188.245 47.0443 188.182 46.8223C188.119 46.6003 188.127 46.3674 188.206 46.1238C188.364 45.7377 188.514 45.5339 188.655 45.5123C188.837 45.4701 189.126 45.5128 189.521 45.6406C190.526 45.9649 191.215 45.9684 191.586 45.6511C191.967 45.3033 192.226 44.8657 192.363 44.3382C192.54 43.79 192.658 43.4245 192.717 43.2418L195.841 33.5575C196.293 32.1566 196.196 30.9483 195.548 29.9324C194.941 28.8959 194.059 28.1909 192.902 27.8175C191.501 27.3655 190.251 27.332 189.152 27.717C188.052 28.102 187.182 28.6113 186.54 29.2449L183.032 40.1169C182.777 40.9087 182.62 41.4972 182.563 41.8823C182.506 42.2674 182.601 42.651 182.848 43.0332C183.094 43.4153 183.613 43.7342 184.405 43.9897L184.679 44.0781C184.923 44.1567 185.091 44.2614 185.183 44.392C185.276 44.5227 185.278 44.7757 185.191 45.151C185.112 45.3946 184.982 45.5881 184.802 45.7315C184.621 45.8749 184.409 45.9073 184.165 45.8287C182.428 45.1674 180.844 44.6058 179.413 44.144C178.042 43.7018 176.444 43.2365 174.618 42.748ZM223.849 59.0878C221.778 58.4195 220.335 57.2646 219.52 55.6229C218.704 53.9812 218.626 52.1402 219.284 50.0998L222.011 41.6489C222.267 40.8571 222.423 40.2686 222.48 39.8835C222.567 39.5082 222.488 39.1295 222.241 38.7473C221.995 38.3652 221.476 38.0463 220.684 37.7908C220.318 37.6729 220.059 37.5388 219.906 37.3885C219.762 37.2077 219.754 36.9193 219.882 36.5234C219.941 36.3407 220.056 36.1929 220.227 36.0799C220.408 35.9365 220.625 35.8889 220.878 35.937C222.885 36.282 224.658 36.4168 226.195 36.3413C226.671 36.3266 227.05 36.3482 227.334 36.4062L227.471 36.4504C227.959 36.6077 228.109 36.9756 227.922 37.5542L223.456 51.3955C223.004 52.7963 223.097 54.0199 223.734 55.0663C224.381 56.0821 225.284 56.7768 226.441 57.1502C227.872 57.6121 229.203 57.6549 230.434 57.2788C231.665 56.9026 232.561 56.4184 233.122 55.826L236.218 46.2331C236.473 45.4413 236.63 44.8528 236.687 44.4677C236.774 44.0924 236.695 43.7137 236.448 43.3315C236.201 42.9494 235.682 42.6305 234.89 42.375C234.525 42.2571 234.266 42.123 234.112 41.9727C233.969 41.7919 233.961 41.5035 234.089 41.1076C234.148 40.9249 234.263 40.7771 234.434 40.6641C234.615 40.5207 234.832 40.4731 235.085 40.5212C237.092 40.8662 238.864 41.001 240.402 40.9255C240.877 40.9108 241.257 40.9324 241.541 40.9904L241.678 41.0346C242.165 41.1919 242.316 41.5598 242.129 42.1384L237.029 57.9439C236.449 59.7407 237.362 61.0273 239.768 61.8036C240.286 61.9706 240.451 62.3435 240.264 62.9221C240.127 63.3484 239.784 63.5238 239.237 63.4481L231.721 61.5774C231.507 61.5086 231.41 61.3932 231.429 61.2311C231.438 61.0994 231.496 60.8661 231.604 60.5311L232.43 57.973L232.338 57.9435C231.19 58.4808 230.268 58.8894 229.572 59.1693C228.886 59.4188 228.053 59.5533 227.071 59.5729C226.111 59.6327 225.036 59.471 223.849 59.0878ZM249.891 67.7432C248.399 67.2617 247.296 66.3008 246.584 64.8605C245.872 63.4202 245.845 61.6799 246.504 59.6395L250.837 46.2094L248.158 45.4458C247.976 45.3868 247.848 45.2616 247.775 45.07C247.712 44.8479 247.715 44.6303 247.784 44.4172C247.873 44.1431 247.992 43.9294 248.142 43.7762C248.333 43.6023 248.54 43.5345 248.763 43.5729C249.897 43.7036 250.828 43.634 251.554 43.3639C252.32 43.0731 252.929 42.6979 253.38 42.2382C253.84 41.748 254.455 40.9882 255.225 39.9587C255.505 39.6119 255.904 39.5221 256.421 39.6891C256.635 39.7579 256.828 39.8876 257.002 40.0782C257.186 40.2383 257.243 40.425 257.174 40.6382L255.174 45.7426L260.622 47.1474L260.713 47.1769C261.109 47.3047 261.214 47.6579 261.027 48.2365C260.919 48.5715 260.755 48.8716 260.535 49.1368C260.355 49.3814 260.189 49.4791 260.037 49.43L254.965 47.6421L250.484 61.529C250.159 62.534 250.087 63.4353 250.267 64.2331C250.477 65.0406 251.054 65.5967 251.998 65.9014C252.942 66.206 253.834 66.3087 254.673 66.2096C255.118 66.1851 255.386 66.1875 255.477 66.217C255.691 66.2858 255.829 66.4312 255.891 66.6532C255.964 66.8448 256.017 67.0973 256.051 67.4107C256.061 67.4814 256.052 67.5625 256.022 67.6538C255.983 67.7756 255.848 67.8832 255.616 67.9765C254.546 68.2702 253.586 68.3806 252.735 68.3078C251.905 68.2753 250.957 68.0871 249.891 67.7432ZM265.081 72.3924C263.253 71.8028 261.943 70.8085 261.151 69.4095C260.358 68.0104 260.212 66.5344 260.713 64.9812C261.332 63.0626 262.434 61.8377 264.018 61.3063C265.611 60.7445 267.335 60.6115 269.19 60.9074C271.055 61.1728 273.412 61.6814 276.263 62.4332L277.428 58.8245C277.909 57.3322 277.892 56.0826 277.376 55.0756C276.901 54.0479 275.841 53.2688 274.197 52.7381C273.252 52.4335 272.337 52.4575 271.45 52.8101C270.563 53.1627 269.962 53.8263 269.647 54.8008C269.49 55.2881 269.464 55.7336 269.569 56.1374C269.714 56.5205 269.875 56.858 270.049 57.1498C270.255 57.4514 270.352 57.6174 270.343 57.6479C270.284 57.8306 270.007 58.0104 269.513 58.1872C269.059 58.3433 268.558 58.333 268.01 58.1561C267.096 57.8613 266.473 57.2904 266.141 56.4436C265.84 55.6065 265.837 54.7312 266.131 53.8176C266.642 52.234 267.721 51.2875 269.368 50.9782C271.045 50.6787 272.888 50.8533 274.898 51.5018C277.395 52.3076 279.268 53.4332 280.517 54.8784C281.796 56.3335 282.022 58.34 281.197 60.8982L277.763 71.5418C277.587 72.1911 277.588 72.8641 277.767 73.5606C277.945 74.2572 278.446 74.7381 279.268 75.0034C279.512 75.082 279.665 75.1818 279.726 75.3026C279.819 75.4333 279.816 75.6509 279.718 75.9554C279.6 76.3209 279.227 76.4864 278.599 76.4519C277.992 76.4578 277.414 76.3722 276.866 76.1954C275.709 75.8219 274.797 75.1578 274.13 74.2028C273.463 73.2478 273.25 72.1873 273.492 71.0212C272.469 72.0025 271.185 72.5968 269.638 72.8039C268.122 73.0209 266.603 72.8837 265.081 72.3924ZM267.338 70.3973C268.374 70.7314 269.417 70.7821 270.467 70.5494C271.517 70.3166 272.443 69.8422 273.246 69.1261C274.059 68.3796 274.642 67.4581 274.996 66.3618L275.836 63.758C272.559 62.9698 270.139 62.7603 268.574 63.1296C267.009 63.4988 265.941 64.5666 265.371 66.3329C264.703 68.4038 265.359 69.7586 267.338 70.3973ZM289.772 80.6121C288.28 80.1305 287.178 79.1696 286.466 77.7294C285.754 76.2891 285.727 74.5488 286.385 72.5084L290.719 59.0782L288.04 58.3147C287.857 58.2557 287.729 58.1304 287.657 57.9388C287.594 57.7168 287.597 57.4992 287.666 57.286C287.754 57.012 287.873 56.7983 288.024 56.645C288.214 56.4712 288.421 56.4034 288.644 56.4417C289.779 56.5725 290.709 56.5028 291.435 56.2327C292.201 55.942 292.81 55.5668 293.261 55.1071C293.722 54.6169 294.337 53.857 295.106 52.8275C295.386 52.4808 295.785 52.3909 296.303 52.558C296.516 52.6268 296.709 52.7565 296.883 52.9471C297.067 53.1072 297.124 53.2939 297.056 53.5071L295.056 58.6115L300.503 60.0163L300.595 60.0458C300.991 60.1735 301.095 60.5267 300.909 61.1053C300.8 61.4403 300.636 61.7404 300.416 62.0057C300.236 62.2503 300.07 62.348 299.918 62.2989L294.846 60.5109L290.365 74.3979C290.041 75.4029 289.969 76.3042 290.148 77.1019C290.358 77.9095 290.936 78.4656 291.88 78.7702C292.824 79.0749 293.715 79.1776 294.554 79.0784C294.999 79.0539 295.267 79.0564 295.359 79.0859C295.572 79.1547 295.71 79.3001 295.773 79.5221C295.846 79.7137 295.899 79.9662 295.932 80.2796C295.943 80.3503 295.933 80.4313 295.904 80.5227C295.865 80.6445 295.729 80.7521 295.497 80.8454C294.427 81.139 293.467 81.2495 292.616 81.1767C291.786 81.1442 290.838 80.956 289.772 80.6121ZM309.85 86.8385C307.566 86.1015 305.774 84.9853 304.474 83.4899C303.205 82.0044 302.43 80.2915 302.148 78.3512C301.866 76.411 302.054 74.4206 302.713 72.3802C303.293 70.5834 304.259 68.9955 305.612 67.6163C307.005 66.2165 308.645 65.2494 310.533 64.7152C312.42 64.1809 314.368 64.2381 316.378 64.8866C319.089 65.7612 320.949 67.1348 321.959 69.0073C322.978 70.8495 323.216 72.9774 322.673 75.3911C322.348 76.3961 321.853 76.9928 321.187 77.1814C320.521 77.37 319.67 77.2972 318.635 76.9631L307.534 73.3812C306.621 76.2134 306.472 78.6537 307.089 80.7021C307.746 82.7298 309.308 84.1417 311.774 84.9377C313.084 85.3602 314.284 85.4448 315.374 85.1915C316.475 84.9076 317.652 84.2284 318.907 83.1538C319.108 83.0506 319.285 83.0236 319.437 83.0728C319.651 83.1415 319.814 83.2614 319.927 83.4324C320.172 83.7134 320.236 84.0366 320.118 84.402C320.059 84.5847 319.984 84.712 319.894 84.7837C318.459 86.0017 316.873 86.8013 315.136 87.1823C313.439 87.5427 311.677 87.4281 309.85 86.8385ZM315.541 74.048C317.094 74.5492 318.122 74.175 318.626 72.9254C319.078 71.5245 319.081 70.214 318.634 68.9938C318.187 67.7736 317.263 66.9375 315.862 66.4855C314.309 65.9843 312.829 66.1959 311.421 67.1202C310.023 68.0141 308.914 69.5224 308.095 71.6454L315.541 74.048ZM325.242 91.8052C324.42 91.5399 323.818 91.0599 323.437 90.3653C323.066 89.6403 323.018 88.8514 323.293 87.9987C323.548 87.2069 324.039 86.6254 324.764 86.2541C325.489 85.8828 326.278 85.8347 327.13 86.1099C327.952 86.3752 328.549 86.8704 328.921 87.5954C329.322 88.3303 329.395 89.0936 329.14 89.8854C328.865 90.7382 328.349 91.3452 327.594 91.7067C326.879 92.0475 326.095 92.0804 325.242 91.8052Z" fill="#19446C"/>
<defs>
<linearGradient id="paint0_linear" x1="784.75" y1="35" x2="784.75" y2="2214.5" gradientUnits="userSpaceOnUse">
<stop stop-color="#19446C"/>
<stop offset="1" stop-color="#7FAFDB"/>
</linearGradient>
<linearGradient id="paint1_linear" x1="784.75" y1="70" x2="784.75" y2="2249.5" gradientUnits="userSpaceOnUse">
<stop stop-color="#19446C"/>
<stop offset="1" stop-color="#7FAFDB"/>
</linearGradient>
<linearGradient id="paint2_linear" x1="784.75" y1="103" x2="784.75" y2="2282.5" gradientUnits="userSpaceOnUse">
<stop stop-color="#19446C"/>
<stop offset="1" stop-color="#7FAFDB"/>
</linearGradient>
<linearGradient id="paint3_linear" x1="784.75" y1="136" x2="784.75" y2="2315.5" gradientUnits="userSpaceOnUse">
<stop stop-color="#19446C"/>
<stop offset="1" stop-color="#7FAFDB"/>
</linearGradient>
<linearGradient id="paint4_linear" x1="784.75" y1="166" x2="784.75" y2="2345.5" gradientUnits="userSpaceOnUse">
<stop stop-color="#19446C"/>
<stop offset="1" stop-color="#7FAFDB"/>
</linearGradient>
</defs>
</svg>
